<svg id="Layer_1" xmlns="http://www.w3.org/2000/svg" viewBox="0 0 600 300"><style>.st0{fill:#FFF}</style><g id="XMLID_78_"><path id="XMLID_122_" class="st0" d="M84.8 108.8l-7.8 9c-.5.5-1.2.6-1.8.2l-3.5-2.4s-.1 0-.1-.1c-5.8-3.6-12.3-5.4-19.5-5.4-10.1 0-18.7 3.7-25.8 11-7.1 7.3-10.7 16.2-10.7 26.8 0 10.4 3.6 19.3 10.7 26.6 7.2 7.4 15.8 11 25.8 11 4.7 0 9.3-.9 13.8-2.7 2.6-1.1 5.7-3 9.1-5.5.6-.4 1.4-.3 1.8.2l7.5 9c.5.6.4 1.5-.2 1.9l-5.4 4.2-.1.1c-3.4 2-7.3 3.7-11.9 5-4.6 1.3-9.3 2-14 2-14.7 0-27.1-5-37.2-14.9C5.4 174.9.3 162.6.3 148.1c0-14.5 5.1-26.9 15.2-37.1C25.6 100.8 38 95.7 52.6 95.7c6.7 0 13.3 1.2 19.5 3.5 3.7 1.5 7.9 4 12.5 7.6.7.5.7 1.4.2 2z"/><path id="XMLID_119_" class="st0" d="M92.3 147.7c0-14.5 5.1-26.9 15.3-37.1 10.2-10.2 22.6-15.3 37.1-15.3 14.3 0 26.6 5.1 36.7 15.4 10.2 10.3 15.2 22.6 15.2 37 0 14.4-5.1 26.8-15.2 37-10.2 10.3-22.5 15.4-36.9 15.4-14.5 0-26.9-5.1-37-15.4-10.1-10.2-15.2-22.6-15.2-37zm52.2-37.3c-10.2 0-19 3.7-26.3 11-7.3 7.3-11 16.1-11 26.4 0 10.3 3.6 19.1 10.9 26.3 7.3 7.3 16 10.9 26.3 10.9s19.1-3.6 26.4-10.8c7.3-7.2 11-16 11-26.4 0-10.3-3.7-19.1-11-26.4-7.2-7.4-16-11-26.3-11z"/><path id="XMLID_115_" class="st0" d="M211.4 170.6l14.2-1.6c.3 0 .6.3.6.6.1 4.6 1.8 7.7 5 10.7 3.4 3.2 7.6 4.7 12.6 4.7s9.3-1.6 12.6-4.8c3.4-3.2 5.1-7.2 5.1-11.9 0-3.2-.8-6.1-2.5-8.7-1.2-1.8-2.7-3.2-4.5-4.1-1.8-1-3.8-1.8-6-2.5-.8-.3-3.1-.9-6.9-1.8-4.7-1.2-7.9-2.1-9.6-2.7-1.7-.6-3.6-1.4-5.7-2.4-3.9-1.9-7-4.7-9.3-8.5-2.2-3.8-3.4-8-3.4-12.7 0-8.6 2.8-15.6 8.5-21.1 5.7-5.5 12.9-8.2 21.8-8.2 8.6 0 15.6 2.3 20.9 7 5.2 4.5 8.4 7.8 9.8 16.4.1.4-.2.7-.6.7l-14.6 2.5c-.3 0-.5-.2-.6-.4-2-7.8-7-11-15.1-11-3.6 0-6.8 1.1-9.4 3.2-3.5 2.8-5.4 7.3-5 11.8.3 3.5 1.9 6 4.9 7.5 1.2.6 2.3 1 3.2 1.3.9.3 3.7 1.1 8.4 2.5 6.4 1.8 10.2 2.9 11.5 3.4 1.3.5 3.1 1.4 5.5 2.8 4.4 2.2 7.9 5.4 10.5 9.9 2.6 4.4 3.9 9.3 3.9 14.7 0 9-3.2 16.6-9.5 22.8-6.3 6.2-14.1 9.3-23.2 9.3-10 0-18.1-2.9-24.4-8.6-6.1-5.6-9.2-10.7-9.3-20 0-.5.3-.8.6-.8z"/><path id="XMLID_111_" class="st0" d="M413.7 147.7c0-14.5 5.1-26.9 15.3-37.1 10.2-10.2 22.6-15.3 37.1-15.3 14.3 0 26.6 5.1 36.7 15.4 10.2 10.3 15.2 22.6 15.2 37 0 14.4-5.1 26.8-15.2 37-10.2 10.3-22.5 15.4-36.9 15.4-14.5 0-26.9-5.1-37-15.4-10.1-10.2-15.2-22.6-15.2-37zm52.3-37.3c-10.2 0-19 3.7-26.3 11-7.3 7.3-11 16.1-11 26.4 0 10.3 3.6 19.1 10.9 26.3 7.3 7.3 16 10.9 26.3 10.9s19.1-3.6 26.4-10.8c7.3-7.2 11-16 11-26.4 0-10.3-3.7-19.1-11-26.4-7.2-7.4-16-11-26.3-11z"/><path id="XMLID_109_" class="st0" d="M533.3 170.6l14.2-1.6c.3 0 .6.3.6.6.1 4.6 1.8 7.7 5 10.7 3.4 3.2 7.6 4.7 12.6 4.7s9.3-1.6 12.6-4.8c3.4-3.2 5.1-7.2 5.1-11.9 0-3.2-.8-6.1-2.5-8.7-1.2-1.8-2.7-3.2-4.5-4.1-1.8-1-3.8-1.8-6-2.5-.8-.3-3.1-.9-6.9-1.8-4.7-1.2-7.9-2.1-9.6-2.7-1.7-.6-3.6-1.4-5.7-2.4-3.9-1.9-7-4.7-9.3-8.5-2.2-3.8-3.4-8-3.4-12.7 0-8.6 2.8-15.6 8.5-21.1 5.7-5.5 12.9-8.2 21.8-8.2 8.6 0 15.6 2.3 20.9 7 5.2 4.5 8.4 7.8 9.8 16.4.1.4-.2.7-.6.7l-14.6 2.5c-.3 0-.5-.2-.6-.4-2-7.8-7-11-15.1-11-3.6 0-6.8 1.1-9.4 3.2-3.5 2.8-5.4 7.3-5 11.8.3 3.5 1.9 6 4.9 7.5 1.2.6 2.3 1 3.2 1.3.9.3 3.7 1.1 8.4 2.5 6.4 1.8 10.2 2.9 11.5 3.4 1.3.5 3.1 1.4 5.5 2.8 4.4 2.2 7.9 5.4 10.5 9.9 2.6 4.4 3.9 9.3 3.9 14.7 0 9-3.2 16.6-9.5 22.8-6.3 6.2-14.1 9.3-23.2 9.3-10 0-18.1-2.9-24.4-8.6-6.1-5.6-9.2-10.7-9.3-20 0-.5.3-.8.6-.8z"/><path id="XMLID_108_" class="st0" d="M367 96.4c-7.6 0-14.7 3-20.1 8.4l-.3.3-.3-.3c-5.4-5.4-12.5-8.4-20.1-8.4-15.7 0-28.4 12.8-28.4 28.6v72.2c0 .5.4.8.8.8h13.8c.5 0 .8-.4.8-.8V125c0-7.2 5.8-13 12.9-13 3 0 5.9 1.1 8.1 2.9 3 2.3 4.9 5.8 4.9 9.9v71.8c0 .5.4.8.8.8h13.4c.5 0 .8-.4.8-.8v-71.9c0-.8.1-1.6.2-2.3v-.4c1.4-5.8 6.6-9.9 12.5-9.9 7.1 0 12.9 5.8 12.9 13v72.2c0 .5.4.8.8.8h13.8c.5 0 .8-.4.8-.8V125c.4-15.7-12.4-28.6-28.1-28.6z"/><circle id="XMLID_107_" class="st0" cx="403.2" cy="45.6" r="6"/><circle id="XMLID_106_" class="st0" cx="350.6" cy="60.3" r="3"/><circle id="XMLID_105_" class="st0" cx="414" cy="66.7" r="3"/><circle id="XMLID_101_" class="st0" cx="177" cy="245.8" r="4.7"/><circle id="XMLID_100_" class="st0" cx="192.9" cy="235.9" r="3"/><circle id="XMLID_98_" class="st0" cx="142.3" cy="231.7" r="2.5"/></g></svg>