<svg id="Layer_1" xmlns="http://www.w3.org/2000/svg" xmlns:xlink="http://www.w3.org/1999/xlink" viewBox="0 0 600 600"><style>.st0{fill:#e38426}.st1{clip-path:url(#XMLID_5_);fill:#c5cacf}.st2{fill:#e85233}.st2,.st3{clip-path:url(#XMLID_5_)}.st3{fill:#ffcc67}.st4{fill:#d64d2e}.st4,.st5{clip-path:url(#XMLID_5_)}.st5{fill:#e38426}.st6{opacity:.2}.st7{clip-path:url(#XMLID_6_);fill:#c5cacf}.st8{fill:#e85233}.st8,.st9{clip-path:url(#XMLID_6_)}.st9{fill:#ffcc67}.st10{fill:#d64d2e}.st10,.st11{clip-path:url(#XMLID_6_)}.st11{fill:#e38426}.st12{fill:#fae895}.st13{opacity:.15}.st13,.st14{fill:#737178}.st15{opacity:.4}</style><circle id="XMLID_1_" class="st0" cx="268" cy="322.2" r="134.3"/><defs><circle id="XMLID_8_" cx="268" cy="322.2" r="134.3"/></defs><clipPath id="XMLID_5_"><use xlink:href="#XMLID_8_" overflow="visible"/></clipPath><path class="st1" d="M111.8 359.4H423v64.1H111.8zM114.3 292.1h311.2v32.8H114.3z"/><path class="st2" d="M84.8 242.2h349.5v17.5H84.8z"/><path class="st3" d="M142.7 209.4h246.8v10.9H142.7z"/><path class="st2" d="M65.2 359h354.9v6.6H65.2z"/><path class="st4" d="M107.8 322.5h340.7v38H107.8zM107.8 389.6h300.3v12H107.8z"/><path class="st3" d="M161.3 415.8h219.5v44.8H161.3z"/><path class="st2" d="M110.7 308.1h311.2v32.8H110.7z"/><path class="st4" d="M311.5 348.1h-38.4c-5.7 0-10.3-4.6-10.3-10.3v-4.5c0-5.7 4.6-10.3 10.3-10.3h38.4c5.7 0 10.3 4.6 10.3 10.3v4.5c0 5.7-4.6 10.3-10.3 10.3z"/><path class="st2" d="M189.6 234.8h-17c-2.5 0-4.6-2.1-4.6-4.6v-2c0-2.5 2.1-4.6 4.6-4.6h17c2.5 0 4.6 2.1 4.6 4.6v2c0 2.5-2.1 4.6-4.6 4.6z"/><path class="st1" d="M342.1 454.4h-38.4c-5.7 0-10.3-4.6-10.3-10.3v-4.5c0-5.7 4.6-10.3 10.3-10.3h38.4c5.7 0 10.3 4.6 10.3 10.3v4.5c0 5.7-4.6 10.3-10.3 10.3z"/><path class="st5" d="M307.8 341H277c-2.4 0-4.3-1.9-4.3-4.3v-1.9c0-2.4 1.9-4.3 4.3-4.3h30.8c2.4 0 4.3 1.9 4.3 4.3v1.9c-.1 2.3-2 4.3-4.3 4.3z"/><g class="st6"><defs><circle id="XMLID_2_" class="st6" cx="268" cy="322.2" r="134.3"/></defs><clipPath id="XMLID_6_"><use xlink:href="#XMLID_2_" overflow="visible"/></clipPath><path class="st7" d="M111.8 359.4H423v64.1H111.8zM114.3 292.1h311.2v32.8H114.3z"/><path class="st8" d="M84.8 242.2h349.5v17.5H84.8z"/><path class="st9" d="M142.7 209.4h246.8v10.9H142.7z"/><path class="st8" d="M65.2 359h354.9v6.6H65.2z"/><path class="st10" d="M107.8 322.5h340.7v38H107.8zM107.8 389.6h300.3v12H107.8z"/><path class="st9" d="M161.3 415.8h219.5v44.8H161.3z"/><path class="st8" d="M110.7 308.1h311.2v32.8H110.7z"/><path class="st10" d="M311.5 348.1h-38.4c-5.7 0-10.3-4.6-10.3-10.3v-4.5c0-5.7 4.6-10.3 10.3-10.3h38.4c5.7 0 10.3 4.6 10.3 10.3v4.5c0 5.7-4.6 10.3-10.3 10.3z"/><path class="st8" d="M189.6 234.8h-17c-2.5 0-4.6-2.1-4.6-4.6v-2c0-2.5 2.1-4.6 4.6-4.6h17c2.5 0 4.6 2.1 4.6 4.6v2c0 2.5-2.1 4.6-4.6 4.6z"/><path class="st7" d="M342.1 454.4h-38.4c-5.7 0-10.3-4.6-10.3-10.3v-4.5c0-5.7 4.6-10.3 10.3-10.3h38.4c5.7 0 10.3 4.6 10.3 10.3v4.5c0 5.7-4.6 10.3-10.3 10.3z"/><path class="st11" d="M307.8 341H277c-2.4 0-4.3-1.9-4.3-4.3v-1.9c0-2.4 1.9-4.3 4.3-4.3h30.8c2.4 0 4.3 1.9 4.3 4.3v1.9c-.1 2.3-2 4.3-4.3 4.3z"/></g><circle id="XMLID_10_" class="st12" cx="446.8" cy="194" r="38.4"/><circle id="XMLID_4_" class="st13" cx="422" cy="177.2" r="3.9"/><circle id="XMLID_8277_" class="st13" cx="418.3" cy="185.8" r="2.3"/><circle id="XMLID_17_" class="st13" cx="456.3" cy="219.3" r="3.9"/><path class="st13" d="M470.9 192.2c-3.2 0-6 1.7-7.6 4.3h-.3c-3.9 0-7 3.1-7 7s3.1 7 7 7c1.6 0 3-.5 4.2-1.4 1.1.5 2.3.8 3.7.8 4.9 0 8.8-4 8.8-8.8s-3.9-8.9-8.8-8.9z"/><circle id="XMLID_19_" class="st13" cx="449.8" cy="223.4" r="1.3"/><circle id="XMLID_16_" class="st14" cx="456.3" cy="290" r="26.5"/><g id="XMLID_13_" class="st15"><defs><circle id="XMLID_14_" class="st15" cx="456.3" cy="290" r="26.5"/></defs><clipPath id="XMLID_7_"><use xlink:href="#XMLID_14_" overflow="visible"/></clipPath></g></svg>