<svg opacity=".65" xmlns="http://www.w3.org/2000/svg" width="600" height="350" viewBox="0 125.5 600 350"><g opacity=".65"><path fill="#FAE895" d="M538.174 140.72c0 .748-.55 1.346-1.298 1.396-.748 0-1.347-.55-1.397-1.297"/><circle fill="#FAE895" cx="545.06" cy="171.507" r="1.347"/><circle fill="#FAE895" cx="579.291" cy="192.764" r="1.347"/><circle fill="#FAE895" cx="573.403" cy="174.102" r="1.347"/><circle fill="#FAE895" cx="559.331" cy="176.497" r="1.347"/><circle fill="#FAE895" cx="546.507" cy="149.95" r="1.347"/><circle fill="#FAE895" cx="529.342" cy="161.826" r="1.347"/><circle fill="#FAE895" cx="312.774" cy="205.888" r="1.347"/><circle fill="#FAE895" cx="504.69" cy="169.91" r="1.347"/><circle fill="#FAE895" cx="407.535" cy="186.677" r="1.347"/><circle fill="#FAE895" cx="336.228" cy="177.146" r="1.347"/><circle fill="#FAE895" cx="329.342" cy="155.838" r="1.347"/><circle fill="#FAE895" cx="278.942" cy="157.186" r="1.347"/><circle fill="#FAE895" cx="291.617" cy="154.84" r="1.347"/><circle fill="#FAE895" cx="98.004" cy="160.08" r="1.347"/><circle fill="#FAE895" cx="75.499" cy="273.703" r="1.347"/><circle fill="#FAE895" cx="114.321" cy="298.503" r="1.347"/><circle fill="#FAE895" cx="73.603" cy="253.593" r="1.347"/><circle fill="#FAE895" cx="139.521" cy="202.695" r="1.347"/><circle fill="#FAE895" cx="162.325" cy="174.451" r="1.347"/><circle fill="#FAE895" cx="219.261" cy="164.87" r="1.347"/><circle fill="#FAE895" cx="209.481" cy="176.547" r="1.347"/><circle fill="#FAE895" cx="237.275" cy="209.431" r="1.347"/><circle fill="#FAE895" cx="236.128" cy="216.218" r="1.347"/><circle fill="#FAE895" cx="234.281" cy="298.353" r="1.347"/><circle fill="#FAE895" cx="235.13" cy="304.391" r="1.347"/><circle fill="#FAE895" cx="197.206" cy="246.208" r="1.347"/><circle fill="#FAE895" cx="191.866" cy="247.006" r="1.347"/><circle fill="#FAE895" cx="185.828" cy="321.856" r="1.347"/><circle fill="#FAE895" cx="179.741" cy="320.659" r="1.347"/><circle fill="#FAE895" cx="156.038" cy="315.27" r="1.348"/><circle fill="#FAE895" cx="157.385" cy="340.12" r="1.347"/><circle fill="#FAE895" cx="109.93" cy="327.944" r="1.347"/><circle fill="#FAE895" cx="213.423" cy="446.257" r="1.347"/><circle fill="#FAE895" cx="206.587" cy="443.064" r="1.347"/><circle fill="#FAE895" cx="187.525" cy="434.182" r="1.348"/><circle fill="#FAE895" cx="177.944" cy="429.741" r="1.347"/><circle fill="#FAE895" cx="181.237" cy="425.599" r="1.347"/><circle fill="#FAE895" cx="99.002" cy="445.309" r="1.347"/><circle fill="#FAE895" cx="33.184" cy="375.798" r="1.347"/><circle fill="#FAE895" cx="63.573" cy="453.693" r="1.347"/><circle fill="#FAE895" cx="31.986" cy="455.888" r="1.347"/><circle fill="#FAE895" cx="10.629" cy="462.525" r="1.347"/><circle fill="#FAE895" cx="6.986" cy="451.198" r="1.347"/><circle fill="#FAE895" cx="310.928" cy="444.96" r="1.348"/><circle fill="#FAE895" cx="299.501" cy="444.611" r="1.347"/><circle fill="#FAE895" cx="258.833" cy="408.683" r="1.348"/><circle fill="#FAE895" cx="258.333" cy="415.419" r="1.347"/><circle fill="#FAE895" cx="265.719" cy="414.571" r="1.347"/><circle fill="#FAE895" cx="296.906" cy="398.902" r="1.348"/><circle fill="#FAE895" cx="511.228" cy="287.475" r="1.347"/><circle fill="#FAE895" cx="461.677" cy="370.908" r="1.348"/><circle fill="#FAE895" cx="548.553" cy="374.601" r="1.347"/><circle fill="#FAE895" cx="554.891" cy="358.982" r="1.347"/><circle fill="#FAE895" cx="446.906" cy="448.004" r="1.348"/><circle fill="#FAE895" cx="484.381" cy="389.122" r="1.347"/><circle fill="#FAE895" cx="478.742" cy="405.439" r="1.347"/><circle fill="#FAE895" cx="454.74" cy="463.972" r="1.347"/><circle fill="#FAE895" cx="510.778" cy="420.708" r="1.347"/><circle fill="#FAE895" cx="486.078" cy="451.647" r="1.347"/><circle fill="#FAE895" cx="496.457" cy="463.473" r="1.347"/><circle fill="#FAE895" cx="552.694" cy="427.645" r="1.347"/><circle fill="#FAE895" cx="585.729" cy="379.641" r="1.348"/><circle fill="#FAE895" cx="579.591" cy="427.595" r="1.348"/><circle fill="#FAE895" cx="598.652" cy="435.829" r="1.347"/><circle fill="#FAE895" cx="597.205" cy="431.138" r="1.348"/><circle fill="#FAE895" cx="391.367" cy="363.174" r="1.348"/><circle fill="#FAE895" cx="536.727" cy="459.032" r="1.347"/><circle fill="#FAE895" cx="410.878" cy="363.324" r="1.347"/><circle fill="#FAE895" cx="369.91" cy="431.038" r="1.347"/><circle fill="#FAE895" cx="395.858" cy="450.05" r="1.348"/><circle fill="#FAE895" cx="514.671" cy="240.27" r="1.347"/><circle fill="#FAE895" cx="266.268" cy="191.717" r="1.347"/><circle fill="#FAE895" cx="489.771" cy="240.968" r="1.347"/><circle fill="#FAE895" cx="516.517" cy="234.182" r="1.347"/><circle fill="#FAE895" cx="492.914" cy="208.583" r="1.347"/><circle fill="#FAE895" cx="498.004" cy="222.555" r="1.347"/><circle fill="#FAE895" cx="507.685" cy="256.637" r="1.347"/><circle fill="#FAE895" cx="502.245" cy="254.74" r="1.347"/><circle fill="#FAE895" cx="481.088" cy="292.315" r="1.347"/><circle fill="#FAE895" cx="466.667" cy="282.635" r="1.347"/><circle fill="#FAE895" cx="427.346" cy="146.457" r="1.347"/><path fill="#FAE895" d="M423.803 141.167c0 .75-.55 1.348-1.298 1.397-.748.05-1.348-.55-1.397-1.297"/><circle fill="#FAE895" cx="465.868" cy="228.144" r="1.347"/><circle fill="#FAE895" cx="536.477" cy="449.651" r="1.347"/><circle fill="#FAE895" cx="539.321" cy="430.04" r="1.348"/><circle fill="#FAE895" cx="578.643" cy="293.064" r="1.347"/><circle fill="#FAE895" cx="587.026" cy="280.04" r="1.347"/><circle fill="#FAE895" cx="575.648" cy="305.938" r="1.347"/><circle fill="#FAE895" cx="573.403" cy="273.703" r="1.347"/><circle fill="#FAE895" cx="569.91" cy="243.513" r="1.347"/><circle fill="#FAE895" cx="562.525" cy="244.361" r="1.347"/><circle fill="#FAE895" cx="436.577" cy="216.517" r="1.347"/><circle fill="#FAE895" cx="533.932" cy="205.838" r="1.347"/><circle fill="#FAE895" cx="556.088" cy="254.641" r="1.347"/><circle fill="#FAE895" cx="539.97" cy="280.639" r="1.347"/><circle fill="#FAE895" cx="507.186" cy="312.475" r="1.347"/><circle fill="#FAE895" cx="503.394" cy="321.357" r="1.348"/><circle fill="#FAE895" cx="489.371" cy="351.297" r="1.347"/><circle fill="#FAE895" cx="502.495" cy="362.425" r="1.347"/><circle fill="#FAE895" cx="369.012" cy="317.914" r="1.348"/><circle fill="#FAE895" cx="376.197" cy="305.539" r="1.348"/><circle fill="#FAE895" cx="343.313" cy="434.581" r="1.347"/><circle fill="#FAE895" cx="517.864" cy="334.381" r="1.347"/><circle fill="#FAE895" cx="426.397" cy="334.88" r="1.347"/><circle fill="#FAE895" cx="283.084" cy="336.028" r="1.347"/><circle fill="#FAE895" cx="314.97" cy="247.056" r="1.347"/><circle fill="#FAE895" cx="433.932" cy="266.018" r="1.347"/><path fill="#FAE895" d="M472.006 326.297l-1.696.8c-.998.498-1.747 1.347-2.046 2.395l-.85 2.845-1.097-2.945c-.35-.998-1.147-1.796-2.096-2.195l-1.846-.798 1.697-.8c1-.5 1.747-1.347 2.047-2.396l.848-2.844 1.098 2.943c.35.998 1.148 1.797 2.097 2.196l1.846.797zM425.948 401.547l-1.348.648a3.187 3.187 0 0 0-1.646 1.946l-.648 2.297-.898-2.346c-.3-.798-.898-1.446-1.696-1.745l-1.497-.65 1.347-.647c.8-.4 1.397-1.098 1.647-1.946l.647-2.295.898 2.345c.3.8.897 1.447 1.696 1.747l1.498.647zM226.048 468.214l-.798-1.697c-.5-.998-1.347-1.746-2.395-2.046l-2.845-.847 2.944-1.098c.998-.35 1.796-1.148 2.196-2.097l.798-1.846.798 1.696c.5.998 1.347 1.747 2.395 2.046l2.845.85-2.944 1.097c-.997.35-1.795 1.148-2.195 2.097l-.797 1.847zM46.308 440.12l-.8-1.697c-.498-.998-1.346-1.746-2.394-2.046l-2.844-.848 2.944-1.1c.998-.35 1.796-1.147 2.196-2.096l.798-1.846.798 1.696c.5.998 1.348 1.746 2.396 2.046l2.844.85-2.944 1.097c-.998.35-1.796 1.147-2.195 2.096l-.8 1.847zM60.08 272.605l-1.697.798c-.998.5-1.747 1.347-2.046 2.395l-.848 2.844-1.1-2.894c-.348-.998-1.146-1.796-2.095-2.196l-1.846-.798 1.695-.798c.998-.5 1.747-1.347 2.046-2.395l.85-2.843 1.098 2.944c.35 1 1.148 1.797 2.096 2.197l1.846.748zM110.978 183.333l-1.347.648a3.19 3.19 0 0 0-1.646 1.947l-.648 2.295-.898-2.345c-.3-.798-.898-1.447-1.696-1.747l-1.497-.65 1.347-.647a3.187 3.187 0 0 0 1.646-1.946l.65-2.295.897 2.345c.3.798.898 1.447 1.697 1.747l1.496.65z"/><circle fill="#FAE895" cx="212.525" cy="263.922" r="1.347"/><circle fill="#FAE895" cx="177.645" cy="269.611" r="1.347"/><circle fill="#FAE895" cx="183.433" cy="233.782" r="1.347"/><circle fill="#FAE895" cx="350" cy="397.505" r="1.348"/><circle fill="#FAE895" cx="54.741" cy="301.846" r="1.347"/><circle fill="#FAE895" cx="55.789" cy="366.417" r="1.347"/><circle fill="#FAE895" cx="57.086" cy="389.271" r="1.348"/><circle fill="#FAE895" cx="526.197" cy="343.613" r="1.347"/><circle fill="#FAE895" cx="461.477" cy="165.719" r="1.347"/><circle fill="#FAE895" cx="76.497" cy="384.032" r="1.347"/><circle fill="#FAE895" cx="56.736" cy="376.497" r="1.347"/><circle fill="#FAE895" cx="55.489" cy="328.742" r="1.348"/><circle fill="#FAE895" cx="54.94" cy="309.232" r="1.347"/><circle fill="#FAE895" cx="39.271" cy="451.647" r="1.347"/><circle fill="#FAE895" cx="67.266" cy="441.467" r="1.347"/><circle fill="#FAE895" cx="56.138" cy="403.443" r="1.347"/><circle fill="#FAE895" cx="86.677" cy="388.473" r="1.347"/><circle fill="#FAE895" cx="65.719" cy="358.732" r="1.348"/><circle fill="#FAE895" cx="135.629" cy="442.365" r="1.348"/><circle fill="#FAE895" cx="551.247" cy="449.251" r="1.347"/><circle fill="#FAE895" cx="523.752" cy="451.996" r="1.348"/><circle fill="#FAE895" cx="337.625" cy="461.727" r="1.348"/><circle fill="#FAE895" cx="393.313" cy="456.188" r="1.348"/><circle fill="#FAE895" cx="574.352" cy="358.433" r="1.347"/><circle fill="#FAE895" cx="590.719" cy="315.619" r="1.347"/><circle fill="#FAE895" cx="472.954" cy="439.222" r="1.348"/><circle fill="#FAE895" cx="456.886" cy="443.712" r="1.347"/><circle fill="#FAE895" cx="546.956" cy="290.569" r="1.347"/><circle fill="#FAE895" cx="531.537" cy="317.215" r="1.347"/><circle fill="#FAE895" cx="488.673" cy="423.353" r="1.347"/><circle fill="#FAE895" cx="507.436" cy="396.607" r="1.347"/><circle fill="#FAE895" cx="476.048" cy="429.741" r="1.347"/><circle fill="#FAE895" cx="540.12" cy="384.93" r="1.347"/><circle fill="#FAE895" cx="397.105" cy="341.417" r="1.347"/><circle fill="#FAE895" cx="547.654" cy="391.467" r="1.348"/><circle fill="#FAE895" cx="561.976" cy="398.453" r="1.348"/><circle fill="#FAE895" cx="4.791" cy="394.71" r="1.347"/><circle fill="#FAE895" cx="8.433" cy="380.489" r="1.347"/><circle fill="#FAE895" cx="4.99" cy="352.345" r="1.347"/><circle fill="#FAE895" cx="5.339" cy="315.968" r="1.347"/><circle fill="#FAE895" cx="3.992" cy="291.816" r="1.347"/><circle fill="#FAE895" cx="1.347" cy="268.313" r="1.347"/><circle fill="#FAE895" cx="44.461" cy="244.96" r="1.347"/><circle fill="#FAE895" cx="34.88" cy="289.621" r="1.347"/><circle fill="#FAE895" cx="31.886" cy="303.144" r="1.347"/><circle fill="#FAE895" cx="26.198" cy="316.766" r="1.347"/><circle fill="#FAE895" cx="23.403" cy="338.373" r="1.348"/><circle fill="#FAE895" cx="119.411" cy="378.393" r="1.347"/><circle fill="#FAE895" cx="16.467" cy="354.691" r="1.347"/><circle fill="#FAE895" cx="33.034" cy="345.509" r="1.347"/><circle fill="#FAE895" cx="98.253" cy="295.509" r="1.347"/><circle fill="#FAE895" cx="91.667" cy="414.871" r="1.347"/><circle fill="#FAE895" cx="146.707" cy="248.703" r="1.347"/><circle fill="#FAE895" cx="57.685" cy="336.078" r="1.348"/><circle fill="#FAE895" cx="73.802" cy="334.98" r="1.347"/><circle fill="#FAE895" cx="136.976" cy="407.286" r="1.347"/><circle fill="#FAE895" cx="203.443" cy="376.547" r="1.348"/><circle fill="#FAE895" cx="153.942" cy="386.627" r="1.348"/><circle fill="#FAE895" cx="157.834" cy="381.138" r="1.347"/><circle fill="#FAE895" cx="372.405" cy="169.062" r="1.347"/><circle fill="#FAE895" cx="356.687" cy="162.874" r="1.347"/><circle fill="#FAE895" cx="377.096" cy="131.886" r="1.347"/><circle fill="#FAE895" cx="355.988" cy="143.413" r="1.347"/><circle fill="#FAE895" cx="389.222" cy="169.81" r="1.347"/><circle fill="#FAE895" cx="396.107" cy="155.439" r="1.347"/><circle fill="#FAE895" cx="417.814" cy="265.818" r="1.347"/><circle fill="#FAE895" cx="424.151" cy="250.2" r="1.347"/><circle fill="#FAE895" cx="454.99" cy="270.858" r="1.347"/><circle fill="#FAE895" cx="443.612" cy="249.651" r="1.347"/><circle fill="#FAE895" cx="416.916" cy="282.685" r="1.347"/><circle fill="#FAE895" cx="431.237" cy="289.671" r="1.347"/><circle fill="#FAE895" cx="146.357" cy="165.02" r="1.347"/><circle fill="#FAE895" cx="152.695" cy="149.401" r="1.347"/><circle fill="#FAE895" cx="183.533" cy="170.06" r="1.347"/><circle fill="#FAE895" cx="172.156" cy="148.852" r="1.347"/><circle fill="#FAE895" cx="145.459" cy="181.886" r="1.347"/><circle fill="#FAE895" cx="159.78" cy="188.872" r="1.347"/></g></svg>